<svg width="180" height="49" viewBox="0 0 180 49" fill="none" xmlns="http://www.w3.org/2000/svg">
<g clip-path="url(#clip0_3150_38255)">
<path d="M22.4724 18.8707C22.5784 18.8178 22.6512 18.7053 22.6512 18.5729C22.6512 18.4074 22.532 18.275 22.3798 18.2485C22.3798 18.2485 22.3599 18.2419 22.3202 18.2485C22.0621 18.275 21.6385 18.4273 21.334 18.7119C21.6385 18.8509 21.9098 18.9104 22.1216 18.9237C22.3004 18.9369 22.4526 18.9038 22.4724 18.8773" fill="white"/>
<path d="M28.8591 33.8365C28.8591 33.8365 28.7995 33.8166 28.7731 33.7835C28.7598 33.7637 28.7466 33.7372 28.74 33.7107V33.6909V33.6445V33.5453L28.7267 33.3533C28.7267 33.2871 28.7201 33.2143 28.7267 33.1945C28.7267 33.1349 28.7664 33.0687 28.826 33.029C28.826 33.029 28.8393 33.029 28.8459 33.0224H28.8922C29.2232 33.0025 29.7858 32.9363 30.0042 32.8966C30.0373 32.8966 30.0704 32.8635 30.0704 32.8238C30.0704 32.7775 30.0439 32.7444 30.0042 32.7377C29.7858 32.698 28.6407 32.612 28.6407 32.612C28.5944 32.612 28.5944 32.612 28.5679 32.5988C28.548 32.5988 28.5282 32.5855 28.5149 32.5723C28.4818 32.5524 28.4554 32.5193 28.4421 32.4862C28.4289 32.4399 28.4289 32.4399 28.4289 32.334V32.0825V31.9567C28.4289 31.9302 28.4289 31.917 28.4289 31.8971C28.4421 31.8243 28.5083 31.7581 28.5944 31.7383L28.826 31.7184C28.826 31.7184 28.8922 31.7184 28.9452 31.7052C29.2562 31.6787 29.6269 31.6324 29.7924 31.6059C29.8255 31.6059 29.8586 31.5728 29.8586 31.5331C29.8586 31.4868 29.8321 31.4537 29.799 31.4471C29.7196 31.4338 28.4421 31.3279 28.4421 31.3279C28.4355 31.3279 28.4289 31.3279 28.4223 31.3213C28.3825 31.3014 28.3494 31.275 28.3296 31.2352C28.3097 31.1955 28.3031 31.1691 28.3097 31.1161C28.2899 30.8646 28.1575 30.4344 28.4421 30.4211C28.5282 30.4211 28.6208 30.4079 28.7069 30.3946C28.7069 30.3946 29.6534 30.3218 29.8784 30.2821C29.9115 30.2821 29.9446 30.249 29.9446 30.2093C29.9446 30.163 29.9181 30.1299 29.885 30.1233C29.7328 30.0968 29.1503 30.0505 28.7995 30.0174C28.7797 29.9975 28.7731 29.971 28.7731 29.9445L28.8128 29.5077C28.879 29.4217 28.9187 29.3952 29.0312 29.3621C29.157 29.3224 29.3423 29.3091 29.5144 29.2959C29.8718 29.2694 30.2557 29.276 30.633 29.2628C30.6859 29.2628 31.2419 29.2363 32.0097 29.2628C32.4863 29.276 33.3004 29.415 33.446 30.1233C32.1223 31.5927 30.5734 32.8437 28.8657 33.8365M19.1689 36.3914C14.721 36.3252 10.6437 34.7234 7.44677 32.0759C8.08881 31.9766 8.7507 31.9038 9.41922 31.9038C11.0607 31.9038 12.6294 32.2149 14.0723 32.7775C16.058 33.5519 17.7988 34.8029 19.1689 36.3914ZM3.5482 27.6544C5.21618 27.158 7.29453 26.8866 9.08827 26.8866C15.4954 26.8866 21.3135 30.58 24.4244 35.703C23.0079 36.1002 21.5319 36.3252 20.0162 36.3716C18.5335 34.505 16.5743 33.0356 14.3172 32.1553C12.7949 31.5662 11.1468 31.2352 9.4126 31.2352C8.51242 31.2352 7.6321 31.3345 6.77825 31.5C5.53389 30.3682 4.44176 29.0708 3.53496 27.6478M16.528 25.8673C16.6339 25.6422 16.7199 25.4106 16.7861 25.1723L18.1298 20.3934L18.2555 19.9962C18.474 20.0691 18.6924 20.1617 18.891 20.2742C19.1689 20.4397 19.4205 20.6449 19.6257 20.8964C19.8308 21.1413 20.0029 21.4259 20.1022 21.737C20.2214 22.0415 20.2611 22.3791 20.2876 22.71V22.7233C20.2942 22.7961 20.3604 22.8556 20.4332 22.8556C20.5126 22.8556 20.5788 22.7895 20.5788 22.71C20.5788 22.346 20.5589 21.9819 20.453 21.6245C20.367 21.2671 20.1949 20.9229 19.9765 20.6184C19.758 20.314 19.48 20.0492 19.1756 19.8308C18.9439 19.6719 18.699 19.5462 18.4342 19.4403L18.5865 18.9637C19.8904 18.2488 21.565 17.4215 23.1403 16.9184L23.3985 17.3156C23.4647 17.4215 23.4779 17.5539 23.4448 17.6531L23.0675 18.6129C23.0146 18.7784 23.0344 18.9637 23.1205 19.1093L24.3715 21.2671C24.3715 21.2671 24.3715 21.2936 24.3715 21.3068L23.7029 21.3796L23.6434 21.4193C23.4514 21.5385 23.3389 21.7569 23.3654 21.9819L23.4448 22.6769L23.0874 22.7828C22.8954 22.8358 22.8689 23.1005 23.0477 23.1932L23.3389 23.3388L23.1337 23.7889C23.0808 23.9014 23.0741 24.0338 23.1138 24.153L23.3323 24.8281C23.3786 24.9671 23.3654 25.1127 23.2992 25.2451L22.9881 25.8474C22.4784 25.8673 20.0757 25.6488 18.9638 25.0862C18.8645 25.0399 18.7387 25.0664 18.6858 25.159C18.6328 25.2517 18.6659 25.3642 18.7652 25.4106C18.9902 25.5231 19.4933 25.7812 19.8441 25.9202C19.2153 27.0388 19.1822 28.4288 19.2418 29.3157C18.0239 28.5082 16.7067 27.8463 15.3101 27.3433C15.9124 26.8535 16.2897 26.3703 16.5346 25.8673M16.1176 20.3603C16.1176 20.3603 16.1176 20.3603 16.1242 20.3603C16.1375 20.3471 16.7398 19.9632 17.7128 19.4204L16.6537 23.1932C16.6008 22.9152 16.5412 22.6372 16.475 22.3526C16.336 21.7437 16.1904 21.0884 16.1176 20.3603ZM22.677 32.2281C21.8562 31.3411 20.9494 30.5336 19.9698 29.8188C19.9103 29.4018 19.8242 28.5082 19.9765 27.5882C21.0554 28.2832 22.4189 29.2562 22.677 32.2281ZM28.5613 19.5462C28.3693 19.1556 28.3296 18.7122 28.4487 18.2952L30.7323 10.2333L33.0158 18.2952C33.135 18.7122 33.0952 19.1556 32.9033 19.5462L31.0037 23.4183C30.8911 23.6433 30.5734 23.6433 30.4609 23.4183L28.5613 19.5462ZM21.0355 10.5047C21.9622 11.3717 23.2131 12.7088 23.7757 14.4893C20.453 15.4358 17.4811 17.0773 16.2632 17.7988C16.6935 15.8395 17.9643 13.47 21.0355 10.5047ZM12.1595 13.2251C11.6564 13.7215 11.1997 14.2775 10.8555 14.893C10.5511 15.4358 10.3393 16.0249 10.2532 16.6404C10.1738 17.2428 10.2201 17.8583 10.3723 18.454C10.3856 18.5004 10.3988 18.5467 10.4121 18.5996C10.5577 19.0696 10.7629 19.4998 10.9879 19.9234C10.4452 20.0293 9.33317 20.6251 8.7507 23.7095C7.55267 22.3857 4.1439 18.0635 5.07056 12.5102C6.0965 6.37443 10.3988 3.6077 11.1203 3.18409L14.0062 4.07103C14.1584 4.11736 14.3172 4.03793 14.3768 3.89232L15.4822 1.12559C16.5677 0.768165 23.9412 -1.32343 29.6137 5.76548C27.8994 5.45439 24.0008 5.22273 21.8165 8.89625L21.7901 8.86316C20.036 8.83668 14.9063 10.5113 12.1528 13.2184M12.4308 21.095C12.6757 20.8964 13.7282 20.1816 14.1054 19.9301L14.1716 19.8837C14.1716 20.1551 14.1915 20.4331 14.2113 20.7045C14.1783 20.7177 14.1385 20.731 14.1054 20.7574L12.775 21.7635C12.6625 21.5451 12.5367 21.3267 12.411 21.1082C12.411 21.1082 12.4242 21.1082 12.4308 21.1016M14.3636 23.266C14.3106 23.822 14.2113 24.3979 13.9466 24.8149C13.8142 25.02 13.6355 25.159 13.4171 25.2583C13.3509 25.2848 13.2715 25.3113 13.1986 25.3311C13.5494 24.1927 13.4105 23.2462 13.0663 22.3791L14.2908 21.4524C14.2908 21.4855 14.2974 21.5186 14.304 21.5517C14.3636 22.1342 14.4298 22.7034 14.3702 23.2594M37.9006 22.6438C37.7351 22.5975 37.5763 22.6902 37.53 22.849C36.7886 25.3841 35.531 27.6742 33.8961 29.6202C33.6049 29.0378 32.9496 28.6936 32.023 28.6671C31.7582 28.6605 31.5199 28.6539 31.3147 28.6539V24.3052L33.499 19.8506C33.7638 19.3145 33.8167 18.6989 33.6579 18.1231L31.0632 8.96244C31.0566 8.90949 31.0367 8.86316 31.0037 8.82344C30.9242 8.7043 30.7786 8.65135 30.633 8.69106C30.5006 8.73078 30.4079 8.8433 30.3881 8.97568L27.8001 18.1297C27.6346 18.7056 27.6942 19.3211 27.9589 19.8573L30.1432 24.3118V28.7068L29.4747 28.6936C29.2761 28.6936 29.0775 28.7002 28.8393 28.7598C28.7201 28.7928 28.5877 28.8458 28.4752 28.9385C28.3627 29.0311 28.2766 29.137 28.2237 29.2363V29.2496C28.1972 29.2893 28.184 29.329 28.1774 29.3753L28.1443 29.9247V29.9379V29.9512C28.1443 30.0174 28.1575 30.0835 28.1774 30.1497C28.131 30.1696 28.0847 30.1961 28.0384 30.2358C27.9192 30.3284 27.8332 30.4608 27.8001 30.6064C27.7935 30.6395 27.7868 30.6793 27.7868 30.719V30.7719V30.805V30.944L27.8067 31.1293C27.8067 31.2551 27.853 31.414 27.9391 31.5199C27.9986 31.5993 28.0053 31.5728 28.0582 31.639C28.045 31.6721 27.9986 31.7581 27.9854 31.7912C27.9655 31.8508 27.9589 31.9236 27.9589 31.9766V32.1023V32.3539C27.9589 32.4134 27.9589 32.5789 28.0185 32.6914C28.0715 32.8106 28.1641 32.9032 28.27 32.9694C28.2899 32.9827 28.3164 32.9959 28.3428 33.0025C28.323 33.0488 28.3031 33.0952 28.2965 33.1481C28.2766 33.254 28.2833 33.3136 28.2766 33.3732V33.5651L28.2634 33.6644V33.7107C28.2634 33.7107 28.2634 33.7571 28.2634 33.7835C28.27 33.8828 28.3031 33.9821 28.3561 34.0682C28.3627 34.0814 28.3825 34.0946 28.3958 34.1145C27.3434 34.6903 26.2314 35.1603 25.0797 35.5243C24.5568 34.6374 23.9743 33.7968 23.319 33.0091C23.233 28.9848 21.3995 27.8 20.175 27.0123L20.1022 26.966C20.1883 26.6946 20.2942 26.4365 20.4398 26.1916L20.3273 26.1254C21.3995 26.4762 22.2799 26.5424 22.7763 26.5424C23.041 26.5424 23.1999 26.5225 23.2198 26.5225L23.3918 26.5027L24.0008 25.3311C24.067 25.1988 24.0802 25.0465 24.0339 24.9075L23.8088 24.2258C23.7691 24.1 23.7757 23.9676 23.8287 23.8485L24.067 23.3057C24.1133 23.2064 24.1266 23.0939 24.1199 22.9814L24.0273 22.0415L24.6561 21.9687L24.7156 21.929C25.04 21.737 25.0995 21.2406 24.9341 20.9626L23.6897 18.8181L24.0537 17.898C24.153 17.5936 24.1199 17.256 23.9412 16.9714L23.7757 16.7132C24.2523 16.561 24.7421 16.422 25.2253 16.3095C25.404 16.2632 25.5165 16.0844 25.4702 15.9057C25.4305 15.727 25.2452 15.6145 25.0664 15.6608C21.1215 16.6073 17.1766 18.924 16.0514 19.6123C16.0514 19.3145 16.058 19.0034 16.0911 18.6791C16.667 18.315 20.5258 15.9454 24.7487 14.9261C24.9142 14.8864 25.04 14.7342 25.0267 14.5687C25.0069 14.3172 24.7223 14.1716 24.4972 14.3304C24.4178 14.3039 24.4178 14.3039 24.3384 14.2841C23.736 12.4043 22.4387 11.0077 21.4723 10.0943C21.618 9.9619 21.7768 9.8229 21.9224 9.66405C22.0151 9.65081 22.1011 9.59786 22.1475 9.51181C24.6627 4.77926 30.0307 6.47371 30.2557 6.54652C30.3749 6.58623 30.5139 6.54652 30.5933 6.44061C30.6727 6.33471 30.6727 6.18909 30.5933 6.08319C24.2854 -2.63398 15.2439 0.569596 15.1512 0.602691C15.0718 0.629167 15.0056 0.695356 14.9725 0.774784L13.9201 3.41575L11.1732 2.56852C11.1004 2.54205 11.0144 2.55528 10.9482 2.58838C10.7298 2.7009 5.64641 5.43453 4.47485 12.4109C3.3033 19.4005 8.68451 24.517 8.73746 24.5633C8.79703 24.6163 8.86984 24.6428 8.94265 24.6428C8.97575 24.6428 9.00884 24.6428 9.04194 24.6229C9.14784 24.5832 9.22065 24.4971 9.24051 24.3846C9.83621 20.4861 11.1534 20.4861 11.2063 20.4993C11.2394 20.4993 11.2791 20.4993 11.3122 20.4927C11.3983 20.6383 11.4843 20.7773 11.5704 20.9229C12.4176 22.2996 13.1523 23.5109 12.5698 25.2583C12.497 25.4701 12.3117 25.6621 12.3713 25.8739C12.4242 26.0857 12.6294 26.1188 12.8611 26.0857C13.1788 26.0394 13.4965 25.9401 13.7811 25.7812C14.2312 25.5297 14.5158 25.0862 14.6813 24.6097C15.0122 23.6367 14.8799 22.5445 14.7276 21.512C14.6416 20.9361 14.5489 20.3603 14.5158 19.7844C14.4364 18.6394 14.6085 17.4744 15.0652 16.4022C15.0652 16.4022 15.1248 16.283 15.0387 16.2433C14.9593 16.2036 14.9063 16.3293 14.9063 16.3293C14.4893 17.1832 14.2643 18.1297 14.1981 19.0895L13.7348 19.3807C13.3707 19.6256 12.3382 20.3338 12.0734 20.539C11.8153 20.122 11.5571 19.6984 11.3453 19.2483C11.0872 18.7122 10.8952 18.1363 10.8555 17.5406C10.7629 16.2036 11.3453 14.9063 12.6029 13.6685C15.0255 11.2857 19.1491 9.88909 21.062 9.56477C14.3239 15.8263 15.1843 19.6653 15.8264 22.4982C16.25 24.3912 16.5346 25.6687 14.5489 27.0852C12.7883 26.5358 10.9217 26.2379 8.98898 26.2379C7.05625 26.2379 5.06394 26.5689 3.25034 27.1513C1.57575 24.3383 0.615997 21.0553 0.615997 17.5539C0.615997 16.4683 0.708663 15.3762 0.893994 14.3106C0.92047 14.1451 0.814566 13.9929 0.649092 13.9598C0.483618 13.9333 0.331382 14.0392 0.298287 14.2047C0.106337 15.3034 0.0136719 16.4286 0.0136719 17.5472C0.0136719 28.27 8.73746 36.9871 19.4536 36.9871C23.0609 36.9871 26.4961 35.9612 29.4548 34.1741H29.4681C29.5673 34.1741 29.6468 34.1145 29.6931 34.0351C33.6711 31.5596 36.7489 27.6809 38.1124 23.0013C38.1588 22.8424 38.0661 22.6769 37.9072 22.6306" fill="white"/>
<path d="M90.734 23.7368C90.5751 24.7032 90.2839 25.6034 89.8537 26.444C89.5293 27.0728 89.1521 27.556 88.7152 27.8935C88.4505 28.0987 88.093 28.0524 87.8481 27.8141C87.1465 27.1191 86.5905 26.2785 86.1868 25.2923C85.7036 24.1207 85.5778 22.8631 85.7963 21.5195C85.9551 20.5531 86.2463 19.6397 86.6832 18.7924C87.0075 18.157 87.3848 17.6672 87.8283 17.323C88.093 17.1179 88.4505 17.1708 88.6887 17.4091C89.3904 18.1239 89.9397 18.9778 90.3435 19.964C90.8201 21.1356 90.9524 22.3932 90.734 23.7368ZM88.285 14.9932C84.0753 14.9932 80.6533 18.4152 80.6533 22.6381C80.6533 26.861 84.0753 30.2896 88.285 30.2896C92.4946 30.2896 95.9166 26.8676 95.9166 22.6381C95.9166 18.4085 92.5013 14.9932 88.285 14.9932Z" fill="white"/>
<path d="M157.07 25.1935C156.752 25.4185 156.388 25.6767 155.991 25.9613C155.587 26.2459 155.23 26.4709 154.912 26.643C154.336 26.2459 153.807 25.6502 153.323 24.8493C152.84 24.055 152.602 23.1151 152.602 22.0296C152.602 20.9441 152.86 19.9711 153.37 19.1901C153.879 18.409 154.555 17.7339 155.488 17.4162C156.004 17.2375 156.56 17.3368 157.076 17.6015V25.1869L157.07 25.1935ZM162.411 16.5756C162.411 16.5756 159.678 14.9937 155.362 14.9937C151.047 14.9937 147.73 18.6606 147.73 22.8768C147.73 27.0931 151.9 30.6607 151.9 30.6607L156.944 27.5101L159.108 30.5548L164.463 27.6094L162.411 25.9877L162.425 16.5756H162.411Z" fill="white"/>
<path d="M173.955 20.6127C172.704 20.1361 171.797 19.6198 171.135 19.1499C170.923 18.9976 170.797 18.7527 170.797 18.4946C170.797 18.2365 170.923 17.9916 171.135 17.8393L175.854 19.183L179.111 16.5817C179.111 16.5817 176.291 14.7549 173.544 14.7549C169.401 14.7549 166.78 16.8266 166.78 19.8978C166.78 22.605 169.46 24.2796 171.956 25.0871C176.622 26.5896 176.582 28.2973 175.874 28.423L168.415 26.1924L165.449 28.6481C165.449 28.6481 168.739 30.5742 172.293 30.5742C175.848 30.5742 179.018 29.3894 179.018 25.9078C179.018 23.1279 176.119 21.4467 173.948 20.6127" fill="white"/>
<path d="M125.358 10.7109H119.785V15.609L125.358 12.2532V10.7109Z" fill="white"/>
<path d="M114.351 20.1886C114.351 15.8598 109.095 14.6816 109.095 14.6816L104.641 17.263L103.012 14.7346L98.0547 17.6668L99.7822 19.2553V26.7414L98.5379 29.9781H105.944L104.826 26.6752V18.2956C104.826 18.2956 109.221 18.7986 109.221 21.1285V29.9781H115.641L114.344 26.6752V20.182L114.351 20.1886Z" fill="white"/>
<path d="M125.357 15.0723L118.414 19.2687L119.956 21.3735V26.7415L118.699 29.9782H126.648L125.357 26.6819V15.0723Z" fill="white"/>
<path d="M138.795 25.1529L136.829 26.4303C135.981 25.9869 135.273 25.3382 134.697 24.4844C134.128 23.6305 133.81 22.7303 133.691 21.4463C133.619 20.7049 133.777 20.0033 133.91 19.3745C133.976 19.0568 134.069 18.759 134.201 18.4677C134.439 17.9316 134.936 17.5543 135.518 17.4815C136.001 17.4352 136.504 17.4418 137.021 17.5014C137.53 17.5543 138.285 17.6735 138.795 17.8588V25.1529ZM143.891 6.3418L136.815 10.5382L138.49 12.2591V14.7744C138.205 14.7479 137.861 14.7346 137.438 14.7346C133.135 14.7346 129.607 17.5808 129.607 22.876C129.607 26.9334 133.771 30.6599 133.771 30.6599L138.814 27.5092L140.979 30.554L145.95 27.6085L143.891 25.9869V6.3418Z" fill="white"/>
<path d="M62.3718 24.6903L55.1903 28.1255V11.32L56.6597 8.01709H48.5382L49.9679 11.2538V26.5105L48.4521 29.8464H62.3718V24.6903Z" fill="white"/>
<path d="M71.2222 17.9453L74.2536 19.8184V20.1163C73.3667 20.7782 69.4284 23.6177 69.4483 23.5846C68.7864 21.4666 69.6402 18.68 71.2222 17.9453ZM70.9111 25.5703L78.2449 20.1759V17.6474C75.5907 16.1118 71.8377 14.2056 71.8377 14.2056L68.0914 16.1979C66.0858 17.3032 64.7422 19.4279 64.7422 21.7181L64.8084 24.6569C64.8018 26.3447 65.6291 27.748 67.3898 28.8335C68.654 29.6145 70.4544 30.197 72.1951 30.5875L78.9332 27.053C75.7363 27.5825 71.8774 26.7816 70.9044 25.5637" fill="white"/>
</g>
<defs>
<clipPath id="clip0_3150_38255">
<rect width="179.116" height="37" fill="white"/>
</clipPath>
</defs>
</svg>
