<svg width="151" height="57" viewBox="0 0 151 57" fill="none" xmlns="http://www.w3.org/2000/svg">
<path d="M146.907 19.5192L144.412 15.7461C142.763 13.2493 141.315 11.0576 141.315 7.38757C141.315 5.70713 141.366 3.71756 143.613 3.71756C145.308 3.71756 145.46 5.398 145.46 6.369V12.1554C145.46 12.3655 145.627 12.5359 145.832 12.5359H149.329C149.534 12.5359 149.701 12.3655 149.701 12.1554V6.16688C149.701 3.36483 148.902 0 143.764 0C138.576 0 136.628 3.67 136.628 7.43909C136.628 11.8225 138.075 14.4224 139.472 16.6141L141.37 19.5707C143.116 22.2737 145.262 24.9212 145.262 29.1024C145.262 30.9889 145.211 33.5889 143.015 33.5889C141.218 33.5889 140.621 32.4157 140.621 30.121V23.9264C140.621 23.7163 140.454 23.5459 140.248 23.5459H136.701C136.496 23.5459 136.329 23.7163 136.329 23.9264V29.5067C136.329 31.5953 136.43 33.4819 137.877 35.2138C138.676 36.1293 140.174 37.354 143.019 37.354C149.903 37.354 150.004 30.5252 150.004 28.3851C150 25.6345 149.049 22.7295 146.907 19.5192Z" fill="#503223"/>
<path d="M128.276 0.713379H124.431C124.225 0.713379 124.058 0.8838 124.058 1.09385V28.2344C124.058 31.2426 123.907 33.3312 121.264 33.3312C119.417 33.3312 118.47 32.4157 118.47 29.1539V1.09385C118.47 0.8838 118.303 0.713379 118.098 0.713379H114.303C114.097 0.713379 113.93 0.8838 113.93 1.09385V28.7933C113.93 33.6364 115.676 37.2549 121.117 37.2549C125.905 37.2549 128.653 34.758 128.653 27.9808V1.09385C128.649 0.8838 128.482 0.713379 128.276 0.713379Z" fill="#503223"/>
<path d="M57.289 0.689697H53.4434C53.2377 0.689697 53.0708 0.860119 53.0708 1.07017V28.2108C53.0708 31.2189 52.9234 33.3075 50.2768 33.3075C48.4296 33.3075 47.4828 32.392 47.4828 29.1302V1.07017C47.4828 0.860119 47.3159 0.689697 47.1102 0.689697H43.315C43.1094 0.689697 42.9425 0.860119 42.9425 1.07017V28.7696C42.9425 33.6127 44.6888 37.2312 50.1293 37.2312C54.918 37.2312 57.6654 34.7343 57.6654 27.9571V1.07017C57.6654 0.860119 57.4986 0.689697 57.289 0.689697Z" fill="#503223"/>
<path d="M14.3465 0.689754H10.5513C10.3456 0.689754 10.1788 0.860176 10.1788 1.07023V12.8967L4.60625 0.907735C4.54416 0.772983 4.41222 0.685791 4.26476 0.685791H0.376416C0.166865 0.689754 0 0.860176 0 1.07419V36.292C0 36.502 0.166865 36.6724 0.372536 36.6724H4.16774C4.37342 36.6724 4.54028 36.502 4.54028 36.292V7.80385L10.1788 19.6026V36.292C10.1788 36.502 10.3456 36.6724 10.5513 36.6724H14.3465C14.5522 36.6724 14.719 36.502 14.719 36.292V1.07023C14.719 0.860176 14.5522 0.689754 14.3465 0.689754Z" fill="#503223"/>
<path d="M34.933 0.689697H24.0519C23.8462 0.689697 23.6793 0.860119 23.6793 1.07017V36.2879C23.6793 36.498 23.8462 36.6684 24.0519 36.6684H34.933C35.1387 36.6684 35.3055 36.498 35.3055 36.2879V33.9575C35.3055 33.7475 35.1387 33.577 34.933 33.577H28.2196V18.8138H34.1841C34.3897 18.8138 34.5566 18.6434 34.5566 18.4333V16.1029C34.5566 15.8929 34.3897 15.7224 34.1841 15.7224H28.2196V3.78106H34.933C35.1387 3.78106 35.3055 3.61064 35.3055 3.40059V1.07017C35.3055 0.860119 35.1387 0.689697 34.933 0.689697Z" fill="#503223"/>
<path d="M80.9528 0.689697H77.1576C76.9519 0.689697 76.785 0.860119 76.785 1.07017V15.7224H71.1465V1.07017C71.1465 0.860119 70.9797 0.689697 70.774 0.689697H66.9788C66.7731 0.689697 66.6063 0.860119 66.6063 1.07017V36.2879C66.6063 36.498 66.7731 36.6684 66.9788 36.6684H70.774C70.9797 36.6684 71.1465 36.498 71.1465 36.2879V18.8138H76.785V36.2879C76.785 36.498 76.9519 36.6684 77.1576 36.6684H80.9528C81.1584 36.6684 81.3253 36.498 81.3253 36.2879V1.07017C81.3253 0.860119 81.1584 0.689697 80.9528 0.689697Z" fill="#503223"/>
<path d="M97.8023 0.154541C93.0098 0.154541 90.2662 2.65141 90.2662 9.42863V36.3156C90.2662 36.5256 90.4331 36.696 90.6388 36.696H94.4844C94.6901 36.696 94.857 36.5256 94.857 36.3156V18.8177H100.449V36.3156C100.449 36.5256 100.616 36.696 100.821 36.696H104.617C104.822 36.696 104.989 36.5256 104.989 36.3156V8.6122C104.989 3.77302 103.243 0.154541 97.8023 0.154541ZM100.449 15.7501H94.8608V9.17498C94.8608 6.16685 95.0083 4.07819 97.6549 4.07819C99.502 4.07819 100.449 4.99371 100.449 8.2555V15.7501Z" fill="#503223"/>
<path d="M88.4346 54.9431L86.762 53.2349L88.4423 51.5188L90.1148 53.227L88.4346 54.9431Z" fill="#503223"/>
<path d="M31.2271 49.2319H34.6963C35.1464 49.2319 35.5267 49.2914 35.8255 49.4142C36.1282 49.5331 36.3688 49.6877 36.5512 49.8779C36.7297 50.0642 36.8617 50.2782 36.9354 50.5121C37.013 50.7459 37.0518 50.9758 37.0518 51.2056C37.0518 51.5941 36.947 51.9349 36.7452 52.2202C36.5396 52.5096 36.2796 52.6998 35.9691 52.7989V52.8187C36.427 52.9336 36.7608 53.1635 36.9625 53.5162C37.1682 53.869 37.2691 54.2772 37.2691 54.7449C37.2691 54.8875 37.2458 55.0738 37.1954 55.3077C37.1449 55.5415 37.044 55.7714 36.8888 55.9933C36.7336 56.2152 36.5046 56.4094 36.2058 56.568C35.907 56.7265 35.5112 56.8058 35.0184 56.8058H31.2271V49.2319ZM32.205 52.4462H34.4673C34.6691 52.4462 34.8632 52.4303 35.0455 52.3986C35.2279 52.3669 35.3909 52.3074 35.5306 52.2163C35.6703 52.1291 35.779 52.0062 35.8643 51.8477C35.9458 51.6931 35.9885 51.491 35.9885 51.2413C35.9885 50.956 35.942 50.738 35.8527 50.5795C35.7634 50.4249 35.6432 50.3099 35.4996 50.2386C35.3521 50.1673 35.1891 50.1276 35.0106 50.1157C34.8282 50.1039 34.6458 50.0999 34.4596 50.0999H32.2088V52.4462H32.205ZM32.205 55.9378H34.8399C35.2357 55.9378 35.5617 55.8387 35.8178 55.6406C36.0739 55.4424 36.202 55.1293 36.202 54.7052C36.202 54.3802 36.1515 54.1226 36.0506 53.9324C35.9497 53.7461 35.8178 53.6074 35.6587 53.5162C35.4996 53.4251 35.3133 53.3736 35.1076 53.3498C34.902 53.326 34.6924 53.3181 34.4829 53.3181H32.2011V55.9378H32.205Z" fill="#503223"/>
<path d="M39.3995 49.2319H44.6112V50.1039H40.3813V52.4462H44.0601V53.3181H40.3813V55.9378H44.7159V56.8097H39.3995V49.2319Z" fill="#503223"/>
<path d="M46.5903 49.2319H47.5682V55.9378H51.2664V56.8097H46.5864V49.2319H46.5903Z" fill="#503223"/>
<path d="M58.6278 55.7555H58.6084C58.2941 56.2311 57.9099 56.5561 57.4481 56.7344C56.9863 56.9128 56.4935 57 55.9735 57C55.3953 57 54.8792 56.9049 54.4174 56.7146C53.9556 56.5244 53.5637 56.2509 53.2416 55.9021C52.9195 55.5494 52.6711 55.1293 52.5004 54.6418C52.3296 54.1543 52.2443 53.6114 52.2443 53.0248C52.2443 52.5333 52.3258 52.0538 52.4887 51.5782C52.6517 51.1026 52.8923 50.6785 53.2144 50.302C53.5326 49.9255 53.9246 49.6243 54.3863 49.3905C54.8481 49.1606 55.3798 49.0457 55.9774 49.0457C56.3732 49.0457 56.7535 49.0932 57.1144 49.1883C57.4753 49.2835 57.809 49.4261 58.1078 49.6124C58.4105 49.7987 58.6783 50.0325 58.9111 50.3099C59.1439 50.5874 59.3263 50.9084 59.4583 51.277L58.4804 51.5425C58.3989 51.3008 58.2863 51.0828 58.1466 50.8807C58.0069 50.6825 57.8362 50.5121 57.6344 50.3694C57.4326 50.2267 57.1959 50.1157 56.9204 50.0325C56.6448 49.9493 56.3305 49.9097 55.9774 49.9097C55.5622 49.9097 55.1857 49.9929 54.8559 50.1593C54.526 50.3258 54.2466 50.5477 54.0177 50.8252C53.7887 51.1026 53.6141 51.4236 53.4899 51.7922C53.3696 52.1608 53.3075 52.5492 53.3075 52.9535C53.3075 53.3736 53.358 53.7739 53.4628 54.1583C53.5675 54.5427 53.7266 54.8796 53.9478 55.1689C54.1652 55.4583 54.4446 55.6921 54.7822 55.8665C55.1198 56.0409 55.5156 56.128 55.9735 56.128C56.3616 56.128 56.7186 56.0765 57.0407 55.9735C57.3628 55.8704 57.6421 55.7198 57.875 55.5177C58.1078 55.3156 58.2902 55.0619 58.4183 54.7568C58.5463 54.4516 58.6123 54.0949 58.6123 53.6906H56.0472V52.8187H59.4854V56.8731H58.6317V55.7555H58.6278Z" fill="#503223"/>
<path d="M62.1708 49.2319H63.1487V56.8097H62.1708V49.2319Z" fill="#503223"/>
<path d="M71.5191 54.3169C71.5191 54.7489 71.4531 55.1333 71.3212 55.4662C71.1892 55.7991 71.003 56.0805 70.7585 56.3065C70.514 56.5324 70.2191 56.7067 69.8737 56.8217C69.5245 56.9406 69.1325 56.9961 68.694 56.9961C68.2555 56.9961 67.8636 56.9366 67.5182 56.8217C67.169 56.7067 66.8741 56.5324 66.6335 56.3065C66.389 56.0805 66.2027 55.7991 66.0708 55.4662C65.9388 55.1333 65.8729 54.7489 65.8729 54.3169V49.228H66.8546V54.1465C66.8546 54.8123 67.0021 55.3117 67.2932 55.6367C67.5842 55.9616 68.0537 56.1281 68.6979 56.1281C69.346 56.1281 69.8116 55.9656 70.1066 55.6367C70.3976 55.3117 70.5451 54.8123 70.5451 54.1465V49.228H71.523V54.3169H71.5191Z" fill="#503223"/>
<path d="M73.9988 49.2319H75.291L77.5612 55.383L79.8313 49.2319H81.1235V56.8097H80.1456V50.7102H80.1262L77.9608 56.8097H77.1692L75 50.7102H74.9806V56.8097H74.0027V49.2319H73.9988Z" fill="#503223"/>
<path d="M96.1725 51.5428H94.6629V50.8611C94.9113 50.8531 95.1402 50.8333 95.342 50.7977C95.5438 50.762 95.7184 50.6986 95.8698 50.6114C96.0211 50.5242 96.1453 50.3934 96.2501 50.2269C96.3548 50.0605 96.4286 49.8425 96.479 49.573H97.1581V56.81H96.1802V51.5428H96.1725Z" fill="#503223"/>
<path d="M99.4476 54.6816C99.4476 54.305 99.5214 53.9721 99.6727 53.6868C99.8241 53.4014 100.065 53.1438 100.398 52.9258C100.107 52.7633 99.9055 52.5533 99.8008 52.2996C99.696 52.046 99.6378 51.7685 99.6378 51.4713C99.6378 51.3167 99.6611 51.1225 99.7115 50.8966C99.7581 50.6707 99.8667 50.4527 100.03 50.2546C100.193 50.0524 100.429 49.8781 100.74 49.7314C101.05 49.5848 101.462 49.5134 101.974 49.5134C102.486 49.5134 102.897 49.5848 103.208 49.7314C103.518 49.8781 103.755 50.0524 103.918 50.2546C104.081 50.4567 104.186 50.6707 104.236 50.8966C104.283 51.1225 104.31 51.3167 104.31 51.4713C104.31 51.7685 104.256 52.046 104.147 52.2996C104.038 52.5533 103.84 52.7633 103.549 52.9258C103.883 53.1438 104.124 53.4014 104.275 53.6868C104.426 53.9721 104.5 54.305 104.5 54.6816C104.5 54.9075 104.457 55.1492 104.376 55.4068C104.294 55.6644 104.155 55.9022 103.961 56.1202C103.767 56.3382 103.507 56.5205 103.185 56.6632C102.863 56.8059 102.459 56.8772 101.982 56.8772C101.504 56.8772 101.101 56.8059 100.779 56.6632C100.457 56.5205 100.197 56.3422 100.003 56.1202C99.8085 55.9022 99.6688 55.6605 99.5873 55.4068C99.5058 55.1532 99.4476 54.9075 99.4476 54.6816ZM100.426 54.6261C100.426 55.1017 100.565 55.4504 100.849 55.6684C101.128 55.8864 101.504 55.9974 101.97 55.9974C102.436 55.9974 102.808 55.8864 103.092 55.6684C103.371 55.4504 103.514 55.1017 103.514 54.6261C103.514 54.5111 103.495 54.3843 103.456 54.2377C103.417 54.091 103.344 53.9563 103.227 53.8294C103.115 53.7026 102.956 53.5956 102.754 53.5084C102.552 53.4212 102.292 53.3816 101.974 53.3816C101.648 53.3816 101.384 53.4252 101.186 53.5084C100.988 53.5916 100.833 53.6987 100.717 53.8294C100.604 53.9563 100.526 54.095 100.488 54.2377C100.449 54.3803 100.426 54.5151 100.426 54.6261ZM100.55 51.4753C100.55 51.7804 100.666 52.038 100.899 52.2521C101.132 52.4661 101.489 52.5731 101.966 52.5731C102.443 52.5731 102.8 52.4661 103.033 52.2521C103.266 52.038 103.383 51.7804 103.383 51.4753C103.383 51.1701 103.266 50.9125 103.033 50.6984C102.8 50.4844 102.443 50.3774 101.966 50.3774C101.489 50.3774 101.132 50.4844 100.899 50.6984C100.666 50.9125 100.55 51.1701 100.55 51.4753Z" fill="#503223"/>
<path d="M110.868 50.4449H107.566L107.453 52.3195H107.473C107.612 52.1372 107.818 51.9905 108.097 51.8835C108.377 51.7765 108.68 51.725 109.013 51.725C109.417 51.725 109.762 51.8003 110.057 51.947C110.352 52.0936 110.589 52.2918 110.783 52.5375C110.973 52.7832 111.113 53.0606 111.206 53.3658C111.295 53.6749 111.342 53.992 111.342 54.317C111.342 54.6856 111.283 55.0264 111.163 55.3395C111.047 55.6526 110.88 55.9221 110.663 56.148C110.445 56.3739 110.193 56.5523 109.898 56.6791C109.603 56.8059 109.273 56.8694 108.912 56.8694C108.497 56.8694 108.14 56.8139 107.849 56.7029C107.558 56.5919 107.317 56.4532 107.123 56.2868C106.933 56.1203 106.782 55.938 106.673 55.7438C106.565 55.5496 106.487 55.3633 106.433 55.1889C106.382 55.0145 106.347 54.8679 106.332 54.749C106.316 54.6301 106.312 54.5588 106.312 54.535L107.29 54.4835C107.29 54.6103 107.31 54.7609 107.349 54.9353C107.387 55.1097 107.461 55.2761 107.574 55.4307C107.686 55.5852 107.841 55.72 108.047 55.831C108.253 55.9419 108.52 55.9974 108.854 55.9974C109.118 55.9974 109.347 55.9459 109.537 55.8389C109.727 55.7319 109.886 55.5971 110.007 55.4346C110.127 55.2721 110.216 55.0898 110.271 54.8917C110.325 54.6935 110.352 54.5033 110.352 54.317C110.352 53.9643 110.306 53.671 110.205 53.4411C110.108 53.2112 109.987 53.0289 109.844 52.8942C109.7 52.7594 109.549 52.6643 109.386 52.6128C109.223 52.5613 109.075 52.5335 108.943 52.5335C108.61 52.5335 108.323 52.6207 108.078 52.7951C107.834 52.9695 107.636 53.2073 107.484 53.5125L106.588 53.449L106.829 49.5769H110.86V50.4449H110.868Z" fill="#503223"/>
<path d="M112.971 49.573H117.306V50.4766C117.306 50.6748 117.26 50.8928 117.166 51.1306C117.073 51.3684 116.934 51.6458 116.755 51.9668C116.534 52.3552 116.32 52.7436 116.119 53.1281C115.917 53.5125 115.731 53.9009 115.56 54.2972C115.389 54.6936 115.242 55.1018 115.11 55.5179C114.982 55.9341 114.881 56.3621 114.815 56.81H113.689C113.779 56.3423 113.903 55.8826 114.058 55.4307C114.213 54.9789 114.396 54.535 114.601 54.0991C114.807 53.6631 115.032 53.239 115.273 52.8269C115.517 52.4147 115.762 52.0104 116.014 51.6141C116.068 51.5309 116.126 51.4357 116.185 51.3327C116.243 51.2297 116.297 51.1266 116.348 51.0236C116.394 50.9205 116.437 50.8214 116.468 50.7224C116.499 50.6233 116.514 50.5321 116.514 50.4449H113.701V51.7964H112.971V49.573Z" fill="#503223"/>
</svg>
